<?xml version='1.0' encoding='iso-8859-1'?>
<!DOCTYPE svg PUBLIC '-//W3C//DTD SVG 1.1//EN' 'http://www.w3.org/Graphics/SVG/1.1/DTD/svg11.dtd'>
<svg version="1.1" xmlns="http://www.w3.org/2000/svg" viewBox="0 0 512 512" xmlns:xlink="http://www.w3.org/1999/xlink" enable-background="new 0 0 512 512">
  <g>
    <path d="m208,96c-61.75,0-112,50.242-112,112 0,8.836 7.156,16 16,16 8.844,0 16-7.164 16-16 0-44.109 35.891-80 80-80 8.844,0 16-7.164 16-16s-7.156-16-16-16z"/>
    <path d="m497.938,430.063l-87.712-87.712c9.595-18.13 6.979-41.027-8.288-56.288-0.305-0.305-0.669-0.506-0.98-0.801 9.611-23.916 15.042-49.948 15.042-77.262 0-114.695-93.312-208-208-208s-208,93.305-208,208 93.313,208 208,208c27.313,0 53.346-5.431 77.262-15.043 0.295,0.312 0.496,0.676 0.801,0.98 9.375,9.376 21.656,14.063 33.937,14.063 7.719,0 15.353-2.071 22.351-5.774l87.712,87.712c9.375,9.375 21.656,14.062 33.937,14.062 12.281,0 24.563-4.688 33.938-14.063 18.75-18.742 18.75-49.132 0-67.874zm-433.938-222.063c0-79.398 64.594-144 144-144 79.406,0 144,64.602 144,144s-64.594,144-144,144c-79.406,0-144-64.602-144-144z"/>
  </g>
</svg>
